<svg width="20" height="20" viewBox="0 0 20 20" fill="none" xmlns="http://www.w3.org/2000/svg">
<g id="mingcute:close-line" clip-path="url(#clip0_1578_9534)">
<g id="Group">
<path id="Vector" d="M5.46399 16.0678L9.99993 11.5319L14.5373 16.0693L14.5373 16.0693L14.5404 16.0723C14.7447 16.2697 15.0184 16.3788 15.3024 16.3764C15.5865 16.3739 15.8582 16.26 16.0591 16.0591C16.2599 15.8583 16.3739 15.5865 16.3763 15.3025C16.3788 15.0185 16.2696 14.7448 16.0723 14.5405L16.0723 14.5405L16.0692 14.5374L11.5318 9.99999L16.0692 5.4626L16.0692 5.46263L16.0723 5.4595C16.2696 5.25518 16.3788 4.98153 16.3763 4.69749C16.3739 4.41344 16.2599 4.14173 16.0591 3.94087C15.8582 3.74001 15.5865 3.62607 15.3024 3.62361C15.0184 3.62114 14.7447 3.73033 14.5404 3.92767L14.5404 3.92764L14.5373 3.93072L9.99993 8.46811L5.46254 3.93072L5.46264 3.93062L5.45678 3.92513C5.25154 3.73267 4.97947 3.62761 4.69815 3.63218C4.41683 3.63675 4.14832 3.75058 3.94944 3.94961C3.75056 4.14863 3.63691 4.41722 3.63254 4.69854C3.62817 4.97987 3.73342 5.25186 3.92603 5.45696L3.92594 5.45705L3.93147 5.46259L8.46806 9.99998L3.9321 14.5359C3.8294 14.6356 3.74745 14.7545 3.69098 14.886L3.92068 14.9847L3.69098 14.886C3.6342 15.0182 3.60432 15.1603 3.60307 15.3042C3.60182 15.448 3.62923 15.5906 3.6837 15.7238C3.73817 15.8569 3.81861 15.9779 3.92033 16.0796C4.02205 16.1813 4.143 16.2618 4.27614 16.3162C4.40927 16.3707 4.55193 16.3981 4.69577 16.3969C4.83962 16.3956 4.98177 16.3657 5.11394 16.3089L5.01527 16.0792L5.11394 16.3089C5.24541 16.2525 5.36438 16.1705 5.46399 16.0678Z" fill="#FF5252" stroke="#FF5252" stroke-width="0.5"/>
</g>
</g>
<defs>
<clipPath id="clip0_1578_9534">
<rect width="20" height="20" fill="white"/>
</clipPath>
</defs>
</svg>
