<svg width="20" height="20" viewBox="0 0 20 20" fill="none" xmlns="http://www.w3.org/2000/svg">
<g id="Group">
<path id="Vector" d="M10.2727 14.4545C10.6103 14.4545 10.934 14.5886 11.1727 14.8273C11.4114 15.066 11.5455 15.3897 11.5455 15.7273C11.5455 16.0648 11.4114 16.3885 11.1727 16.6272C10.934 16.8659 10.6103 17 10.2727 17C9.93518 17 9.61146 16.8659 9.37277 16.6272C9.13409 16.3885 9 16.0648 9 15.7273C9 15.3897 9.13409 15.066 9.37277 14.8273C9.61146 14.5886 9.93518 14.4545 10.2727 14.4545ZM10.2727 3C10.6103 3 10.934 3.13409 11.1727 3.37277C11.4114 3.61146 11.5455 3.93518 11.5455 4.27273V11.9091C11.5455 12.2466 11.4114 12.5704 11.1727 12.809C10.934 13.0477 10.6103 13.1818 10.2727 13.1818C9.93518 13.1818 9.61146 13.0477 9.37277 12.809C9.13409 12.5704 9 12.2466 9 11.9091V4.27273C9 3.93518 9.13409 3.61146 9.37277 3.37277C9.61146 3.13409 9.93518 3 10.2727 3Z" fill="#BC9653"/>
</g>
</svg>
